<svg xmlns="http://www.w3.org/2000/svg" xmlns:xlink="http://www.w3.org/1999/xlink" version="1.1" x="0px" y="0px" viewBox="0 0 100 100" enable-background="new 0 0 100 100" xml:space="preserve"><rect x="-227.006" y="59.672" width="62.786" height="1.621"></rect><g><path d="M-146.2,45.988l-1.258,1.023l1.75,2.148l-20.147,16.412v-2.801h-59.474v8.984h4.127c1.279-2.273,3.715-3.812,6.505-3.812   c2.789,0,5.225,1.539,6.504,3.812h25.504c1.28-2.273,3.716-3.812,6.505-3.812c2.79,0,5.226,1.539,6.506,3.812h3.823v-4.092   l21.172-17.246l1.736,2.131l1.258-1.025L-146.2,45.988z"></path><path d="M-176.075,82.084c-3.7,0-6.71-3.012-6.71-6.711c0-3.701,3.01-6.711,6.71-6.711s6.711,3.01,6.711,6.711   C-169.364,79.072-172.375,82.084-176.075,82.084 M-176.075,70.162c-2.873,0-5.21,2.338-5.21,5.211s2.337,5.211,5.21,5.211   s5.211-2.338,5.211-5.211S-173.202,70.162-176.075,70.162"></path><path d="M-176.026,73.844c-0.822,0-1.49,0.668-1.49,1.49s0.668,1.49,1.49,1.49c0.821,0,1.49-0.668,1.49-1.49   S-175.205,73.844-176.026,73.844"></path><path d="M-214.748,82.084c-3.7,0-6.71-3.012-6.71-6.711c0-3.701,3.01-6.711,6.71-6.711s6.711,3.01,6.711,6.711   C-208.037,79.072-211.048,82.084-214.748,82.084 M-214.748,70.162c-2.873,0-5.21,2.338-5.21,5.211s2.337,5.211,5.21,5.211   s5.211-2.338,5.211-5.211S-211.875,70.162-214.748,70.162"></path><path d="M-214.699,73.844c-0.822,0-1.49,0.668-1.49,1.49s0.668,1.49,1.49,1.49c0.821,0,1.489-0.668,1.489-1.49   S-213.878,73.844-214.699,73.844"></path></g><g><path d="M448.75,69.187V56.471c0-14.91-12.088-27-27-27h-25.544c-14.912,0-27,12.09-27,27v16.308h4.271   c1.199-2.133,3.482-3.554,6.098-3.554s4.898,1.421,6.098,3.554h2.816c1.199-2.133,3.482-3.554,6.098-3.554   c2.616,0,4.898,1.421,6.1,3.554h16.184V35.725h16.172v37.054h23.84v-3.592H448.75z"></path><path d="M455.695,68.719c-0.822,0-1.49-0.67-1.49-1.49c0-0.822,0.668-1.49,1.49-1.49s1.49,0.668,1.49,1.49   C457.186,68.049,456.518,68.719,455.695,68.719"></path><path d="M418.369,72.778h13.172V37.225h-13.172V72.778z M428.715,58.824c-0.82,0-1.49-0.67-1.49-1.49c0-0.824,0.67-1.49,1.49-1.49   c0.822,0,1.49,0.666,1.49,1.49C430.205,58.154,429.537,58.824,428.715,58.824 M420.021,38.875h9.867v9.869h-9.867V38.875z"></path></g><g><path d="M149.748,82.068c-8.325,0-15.099-6.773-15.099-15.1c0-8.324,6.773-15.099,15.099-15.099s15.099,6.774,15.099,15.099   C164.847,75.295,158.073,82.068,149.748,82.068 M149.71,54.073c-7.111,0-12.896,5.786-12.896,12.896   c0,7.111,5.785,12.897,12.896,12.897c7.109,0,12.895-5.786,12.895-12.897C162.604,59.859,156.819,54.073,149.71,54.073"></path><path d="M149.856,63.528c-1.85,0-3.352,1.505-3.352,3.354c0,1.847,1.502,3.352,3.352,3.352s3.354-1.505,3.354-3.352   C153.21,65.033,151.706,63.528,149.856,63.528"></path><path d="M196.664,82.068c-8.325,0-15.099-6.773-15.099-15.1c0-8.324,6.773-15.099,15.099-15.099s15.099,6.774,15.099,15.099   C211.763,75.295,204.989,82.068,196.664,82.068 M196.702,54.073c-7.11,0-12.896,5.786-12.896,12.896   c0,7.111,5.785,12.897,12.896,12.897c7.111,0,12.896-5.786,12.896-12.897C209.599,59.859,203.813,54.073,196.702,54.073"></path><path d="M196.772,63.528c-1.849,0-3.354,1.505-3.354,3.354c0,1.847,1.505,3.352,3.354,3.352s3.354-1.505,3.354-3.352   C200.127,65.033,198.621,63.528,196.772,63.528"></path><path d="M201.062,46.555l1.809-28.206h-58.898l1.941,31.547c1.137-0.233,2.314-0.356,3.52-0.356c9.639,0,17.479,7.843,17.479,17.48   v0.04h11.959c0-0.013-0.001-0.026-0.001-0.04c0-9.638,7.841-17.48,17.479-17.48c1.578,0,3.107,0.214,4.563,0.608l13.142,0.001   v-3.594H201.062z M198.272,37.809h-11.108V26.7h11.108V37.809z"></path></g><g><path d="M266.353,82.179c-5.523,0-10.018-4.494-10.018-10.018c0-5.524,4.494-10.02,10.018-10.02c5.524,0,10.019,4.495,10.019,10.02   C276.371,77.685,271.877,82.179,266.353,82.179 M266.328,63.604c-4.72,0-8.558,3.839-8.558,8.557c0,4.719,3.838,8.557,8.558,8.557   c4.718,0,8.556-3.838,8.556-8.557C274.884,67.443,271.046,63.604,266.328,63.604"></path><path d="M266.425,69.877c-1.227,0-2.225,0.999-2.225,2.226c0,1.226,0.998,2.224,2.225,2.224c1.229,0,2.227-0.998,2.227-2.224   C268.651,70.876,267.653,69.877,266.425,69.877"></path><path d="M323.77,82.179c-5.524,0-10.019-4.494-10.019-10.018c0-5.524,4.494-10.02,10.019-10.02c5.523,0,10.018,4.495,10.018,10.02   C333.787,77.685,329.293,82.179,323.77,82.179 M323.794,63.604c-4.717,0-8.557,3.839-8.557,8.557c0,4.719,3.84,8.557,8.557,8.557   c4.719,0,8.557-3.838,8.557-8.557C332.351,67.443,328.513,63.604,323.794,63.604"></path><path d="M323.841,69.877c-1.226,0-2.225,0.999-2.225,2.226c0,1.226,0.999,2.224,2.225,2.224c1.227,0,2.225-0.998,2.225-2.224   C326.065,70.876,325.067,69.877,323.841,69.877"></path><path d="M327.37,57.436l0.517-2.841h-65.366l1.288,6.238c0.755-0.155,1.536-0.237,2.336-0.237c6.396,0,11.597,5.203,11.597,11.598   v0.027h34.222v-0.027c0-6.395,5.201-11.598,11.597-11.598c1.047,0,2.062,0.142,3.028,0.404h8.719l0.683-3.564H327.37z"></path><g><path d="M328.374,52.877h-66.302l-8.794-32.892l2.696,0.491c0.169,0.031,15.79,3.044,39.262,3.224    c23.446-0.18,39.067-3.193,39.232-3.223l2.7-0.493L328.374,52.877z M264.738,49.406h60.97l6.705-25.081    c-5.503,0.828-18.928,2.708-37.177,2.847c-18.272-0.14-31.7-2.02-37.204-2.847L264.738,49.406z"></path></g></g><g><path d="M62.176,63.956c3.304-3.262,5.356-7.789,5.356-12.798V15.438h-5.496c0,11.984-3.764,22.911-11.055,33.021   C56.831,51.522,61.077,57.213,62.176,63.956z"></path><path d="M62.382,65.086c0.057,1.668,0.098,2.308,0.098,2.958c0,0.181-0.023,0.355-0.027,0.535h31.029v-3.493H62.382z"></path><path d="M19.722,67.398c0-1.062,0.104-2.098,0.254-3.119H13.54v4.865l6.27,0.002C19.763,68.568,19.722,67.988,19.722,67.398z"></path></g><path d="M41.081,87.644c-11.1,0-20.129-9.029-20.129-20.127c0-11.1,9.029-20.129,20.129-20.129c11.096,0,20.125,9.029,20.125,20.129  C61.206,78.614,52.177,87.644,41.081,87.644 M41.087,50.176c-9.558,0-17.34,7.774-17.34,17.338c0,9.56,7.782,17.334,17.34,17.334  c9.56,0,17.336-7.774,17.336-17.334C58.423,57.95,50.646,50.176,41.087,50.176"></path><path d="M41.226,62.927c-2.467,0-4.469,2.006-4.469,4.473c0,2.463,2.002,4.465,4.469,4.465c2.465,0,4.469-2.002,4.469-4.465  C45.694,64.933,43.69,62.927,41.226,62.927"></path><g><path d="M-74.328,46.031c2.094,0.492,4.045,1.283,5.811,2.318l-1.1-6.084l-22.74,0.152l-2.451-12.541   c-0.529-2.632-2.678-5.157-4.801-5.638l-0.072,0.072c-2.121-0.48-3.41,1.265-2.881,3.898l2.395,11.905   c0.059,0.291,0.141,0.58,0.234,0.865l2.834,14.58C-92.488,48.02-83.395,43.906-74.328,46.031z"></path><path d="M-54.934,61.855v-2.092h-4.316c0.234,0.684,0.436,1.381,0.602,2.092H-54.934z"></path></g><path fill="#000000" d="M415.459,48.745v-9.886h-36.741c-2.701,2.783-4.807,6.146-6.113,9.886H415.459z"></path><path d="M394.645,70.758c-2.775,0-5.033,2.258-5.033,5.033s2.258,5.033,5.033,5.033s5.033-2.258,5.033-5.033  S397.42,70.758,394.645,70.758z M394.745,77.353c-0.82,0-1.49-0.67-1.49-1.49c0-0.824,0.67-1.49,1.49-1.49  c0.822,0,1.49,0.666,1.49,1.49C396.235,76.683,395.567,77.353,394.745,77.353z"></path><path d="M379.608,70.758c-2.775,0-5.033,2.258-5.033,5.033s2.258,5.033,5.033,5.033s5.033-2.258,5.033-5.033  S382.384,70.758,379.608,70.758z M379.709,77.353c-0.82,0-1.49-0.67-1.49-1.49c0-0.824,0.67-1.49,1.49-1.49  c0.822,0,1.49,0.666,1.49,1.49C381.199,76.683,380.531,77.353,379.709,77.353z"></path><path d="M-28.605,64.993h-30.422c-0.879-10.214-9.453-18.265-19.893-18.265c-11.021,0-19.992,8.969-19.992,19.99  c0,11.025,8.971,19.992,19.992,19.992c10.424,0,18.989-8.028,19.891-18.225h30.424V64.993z M-78.971,84.695  c-9.912,0-17.975-8.064-17.975-17.977c0-9.908,8.062-17.973,17.975-17.973c9.323,0,16.99,7.146,17.865,16.247h-15.976  c-0.426-0.447-1.021-0.731-1.687-0.731c-1.289,0-2.334,1.049-2.334,2.336c0,1.289,1.045,2.336,2.334,2.336  c0.504,0,0.96-0.175,1.342-0.447h16.314C-62.006,77.568-69.663,84.695-78.971,84.695z"></path></svg>